<svg width="190" height="50" xmlns="http://www.w3.org/2000/svg">
 <g>
  <title>Layer 1</title>
  <g stroke="null" id="svg_10">
   <rect stroke="#000" rx="10" filter="url(#svg_9_blur)" fill="#B6C7EA" x="2.05373" y="6.04295" width="80" height="37.6155" id="svg_9"/>
   <text transform="matrix(1 0 0 1.08667 0 -40.4436)" stroke="#000" fill="#000000" x="20.05373" y="64.95647" id="svg_8" stroke-width="0" font-size="14" font-family="Noto Sans JP" text-anchor="start" xml:space="preserve" font-style="normal" font-weight="bold">月晕~~</text>
   <path stroke="#000" id="svg_5" d="m130.05374,20.22217c0,-6.52376 5.73205,-12.00591 12.55319,-12.00591l33.89361,0c6.82114,0 12.55319,5.48215 12.55319,12.00591l0,10.34369c0,6.52376 -5.73205,12.00591 -12.55319,12.00591l-33.89361,0c-6.82114,0 -12.55319,-5.48215 -12.55319,-12.00591l0,-10.34369z" filter="url(#svg_9_blur)" opacity="undefined" fill="#B6C7EA"/>
   <text xml:space="preserve" text-anchor="start" font-family="Noto Sans JP" font-size="14" id="svg_11" y="29.24787" x="139.45111" stroke="#000" fill="#CBFFFF">下课辣</text>
  </g>
  <path stroke="#000" id="svg_17" d="m124.97387,27.19405l-7.46476,2.72725l0,-5.4516l7.46476,2.72435zm-5.42005,-13.4344l-3.40079,7.35109l-3.75289,-3.85707l7.15367,-3.49402zm-13.07995,-5.56342l2.65417,7.66767l-5.30975,0l2.65558,-7.66767zm-13.08137,5.56342l7.1565,3.49402l-3.7543,3.85707l-3.4022,-7.35109zm-5.41864,13.4344l7.46618,-2.72435l0,5.4516l-7.46618,-2.72725zm5.41864,13.4344l3.4022,-7.34819l3.7543,3.85562l-7.1565,3.49257l0,0zm13.08137,5.56778l-2.65558,-7.66913l5.30975,0l-2.65417,7.66913zm13.07995,-5.56778l-7.15509,-3.49111l3.75289,-3.85562l3.4022,7.34673zm-22.32925,-13.4344l0,0c0,-5.24539 4.14175,-9.49891 9.25071,-9.49891c5.10755,0 9.25071,4.25353 9.25071,9.49891c0,5.24684 -4.14316,9.50036 -9.25071,9.50036c-5.11037,0 -9.25071,-4.25353 -9.25071,-9.50036l0,0z" fill="#FABA6F"/>
  <path id="svg_18" d="m104.07469,30.17663l-0.20175,0.00939l0,-0.01877l0.20175,0.00938zm-0.14649,-0.04626l-0.09191,0.02531l-0.10143,-0.01328l0.19334,-0.01203zm-0.35351,-0.01916l0.07173,0.0264l-0.14351,0l0.07177,-0.0264zm-0.35355,0.01916l0.19342,0.01203l-0.10147,0.01328l-0.09195,-0.02531zm-0.14645,0.04626l0.20179,-0.00938l0,0.01877l-0.20179,-0.00939zm0.14645,0.04626l0.09195,-0.0253l0.10147,0.01328l-0.19342,0.01203l0,0zm0.35355,0.01917l-0.07177,-0.02641l0.14351,0l-0.07173,0.02641zm0.35351,-0.01917l-0.19338,-0.01202l0.10143,-0.01328l0.09195,0.0253zm-0.60349,-0.04626l0,0c0,-0.01806 0.11194,-0.03271 0.25002,-0.03271c0.13804,0 0.25002,0.01465 0.25002,0.03271c0,0.01807 -0.11198,0.03271 -0.25002,0.03271c-0.13812,0 -0.25002,-0.01465 -0.25002,-0.03271l0,0z" stroke="#000" fill="#FABA6F"/>
 </g>
 <defs>
  <filter id="svg_9_blur">
   <feGaussianBlur stdDeviation="0.1" in="SourceGraphic"/>
  </filter>
 </defs>
</svg>