<svg width="190" height="50" xmlns="http://www.w3.org/2000/svg">
 <g>
  <title>Layer 1</title>
  <g stroke="null" id="svg_10">
   <rect stroke="#000" rx="10" filter="url(#svg_9_blur)" fill="#CBFFFF" x="1.05373" y="3.04295" width="80" height="37.6155" id="svg_9"/>
   <text transform="matrix(1 0 0 1.08667 0 -40.4436)" stroke="#000" fill="#000000" x="19.05373" y="62.19574" id="svg_8" stroke-width="0" font-size="14" font-family="Noto Sans JP" text-anchor="start" xml:space="preserve" font-style="normal" font-weight="bold">月晕~~</text>
   <path stroke="#000" id="svg_2" d="m98.68857,34.65643c-8.34661,-7.09154 -11.33086,-11.57752 -11.35505,-17.06917c-0.02206,-5.00631 3.66184,-9.83814 7.47955,-9.81028c1.90639,0.01394 5.99573,1.85654 7.44378,3.35411c0.72961,0.75456 1.07519,0.68015 2.6996,-0.58126c4.42094,-3.43302 8.73804,-3.50508 11.53398,-0.1925c4.46851,5.29419 3.65497,11.61643 -2.33865,18.17429c-3.18655,3.48654 -10.14528,9.67186 -10.88122,9.67186c-0.22394,0 -2.28583,-1.59618 -4.58198,-3.54706l0,0z" fill="#FFAAB8"/>
   <path stroke="#000" id="svg_5" d="m129.05374,17.22217c0,-6.52376 5.73205,-12.00591 12.55319,-12.00591l33.89361,0c6.82114,0 12.55319,5.48215 12.55319,12.00591l0,10.34369c0,6.52376 -5.73205,12.00591 -12.55319,12.00591l-33.89361,0c-6.82114,0 -12.55319,-5.48215 -12.55319,-12.00591l0,-10.34369z" filter="url(#svg_9_blur)" opacity="undefined" fill="#CBFFFF"/>
   <text transform="matrix(1 0 0 1.08667 0 -40.4436)" stroke="#000" xml:space="preserve" text-anchor="start" font-family="Noto Sans JP" font-size="14" id="svg_6" y="62.19574" x="140.05373" fill="#CBFFFF">上课捏</text>
  </g>
 </g>
 <defs>
  <filter id="svg_9_blur">
   <feGaussianBlur stdDeviation="0.1" in="SourceGraphic"/>
  </filter>
 </defs>
</svg>